<svg xmlns="http://www.w3.org/2000/svg" width="78" height="78" viewBox="0 0 78 78"><defs><style>.a{fill:#fbc620;}</style></defs><g transform="translate(0 -21.003)"><path class="a" d="M235.967,314.021a1.879,1.879,0,1,0,1.711,1.871A1.8,1.8,0,0,0,235.967,314.021Z" transform="translate(-196.967 -242.001)"/><path class="a" d="M76.408,21H1.592A1.671,1.671,0,0,0,0,22.744V79.757a1.82,1.82,0,0,0,1,1.615,1.281,1.281,0,0,0,.6.126H29.4l-2.784,7.387H21.385a1.672,1.672,0,0,0-1.592,1.741v6.635A1.672,1.672,0,0,0,21.385,99H56.616a1.672,1.672,0,0,0,1.592-1.741V90.627a1.672,1.672,0,0,0-1.592-1.741H51.382L48.6,81.5H76.408A1.672,1.672,0,0,0,78,79.757V22.744A1.671,1.671,0,0,0,76.408,21Zm-1.592,3.482V66.428H3.184V24.485ZM55.024,95.521H22.976V92.368H55.024Zm-7.086-6.635H30.062L32.847,81.5H45.153ZM3.184,78.016V69.911H74.816v8.106Z" transform="translate(0 0)"/><path class="a" d="M191.694,96.565h0a1.671,1.671,0,0,0-1.592-1.741h-1.7a10.841,10.841,0,0,0-.428-1.755l1.468-.927a1.833,1.833,0,0,0,.582-2.379,1.52,1.52,0,0,0-2.174-.637l-1.472.93a9.863,9.863,0,0,0-1.173-1.283l.85-1.61a1.833,1.833,0,0,0-.582-2.379,1.52,1.52,0,0,0-2.175.637l-.848,1.605a8.608,8.608,0,0,0-1.6-.468V84.7a1.671,1.671,0,0,0-1.592-1.741h-.024a1.672,1.672,0,0,0-1.592,1.741v1.856a8.6,8.6,0,0,0-1.6.468l-.848-1.605a1.52,1.52,0,0,0-2.175-.637,1.833,1.833,0,0,0-.582,2.379l.85,1.61a9.861,9.861,0,0,0-1.173,1.283l-1.472-.93a1.52,1.52,0,0,0-2.174.637,1.833,1.833,0,0,0,.582,2.379l1.468.927a10.841,10.841,0,0,0-.428,1.755h-1.7a1.671,1.671,0,0,0-1.592,1.741h0a1.672,1.672,0,0,0,1.592,1.741h1.7a10.827,10.827,0,0,0,.428,1.755l-1.468.927a1.833,1.833,0,0,0-.582,2.379,1.52,1.52,0,0,0,2.174.637l1.472-.93a9.84,9.84,0,0,0,1.173,1.283l-.85,1.61a1.833,1.833,0,0,0,.582,2.378,1.52,1.52,0,0,0,2.175-.637l.848-1.605a8.594,8.594,0,0,0,1.6.468v1.856a1.672,1.672,0,0,0,1.592,1.741h.024a1.671,1.671,0,0,0,1.592-1.741V106.57a8.581,8.581,0,0,0,1.6-.468l.848,1.605a1.52,1.52,0,0,0,2.175.637,1.833,1.833,0,0,0,.582-2.378l-.85-1.61a9.841,9.841,0,0,0,1.173-1.283l1.472.93a1.52,1.52,0,0,0,2.174-.637,1.833,1.833,0,0,0-.582-2.379l-1.468-.927a10.844,10.844,0,0,0,.428-1.755h1.7a1.671,1.671,0,0,0,1.592-1.741Zm-12.437,6.676h-.024c-3.365,0-6.1-2.995-6.1-6.676s2.738-6.676,6.1-6.676h.024c3.365,0,6.1,2.995,6.1,6.676S182.622,103.241,179.257,103.241Z" transform="translate(-140.245 -51.171)"/></g></svg>