<svg xmlns="http://www.w3.org/2000/svg" width="83.748" height="83.801" viewBox="0 0 83.748 83.801"><defs><style>.a{fill:#780a0d;}</style></defs><g transform="translate(-3.238 0)"><path class="a" d="M142.122,211.033a1.855,1.855,0,0,0-1.33.575,2.036,2.036,0,0,0,0,2.787,1.825,1.825,0,0,0,2.659,0,2.035,2.035,0,0,0,0-2.787A1.851,1.851,0,0,0,142.122,211.033Z" transform="translate(-97.788 -151.637)"/><path class="a" d="M80.177,6.051H52.158A32.376,32.376,0,0,0,46.538.426a2.211,2.211,0,0,0-2.61,0,32.374,32.374,0,0,0-5.617,5.625H10.048a6.746,6.746,0,0,0-6.81,6.665v51.4a6.746,6.746,0,0,0,6.81,6.665H33.3l-2.985,8.77H27.468a2.128,2.128,0,1,0,0,4.254H62.756a2.128,2.128,0,1,0,0-4.254H59.911l-2.985-8.77h23.25a6.746,6.746,0,0,0,6.81-6.665v-51.4A6.745,6.745,0,0,0,80.177,6.051Zm0,4.254a2.44,2.44,0,0,1,2.463,2.411V52.648H64.93V39.323a7.889,7.889,0,0,0-5.84-7.554V25.016a29.285,29.285,0,0,0-4.037-14.711H80.177ZM35.364,46.222a2.1,2.1,0,0,0,.365-1.179v-.688h4.415V47.47c0,1.45.983,3.514,1.938,5.179H30.992Zm-5.476.373V39.323a3.57,3.57,0,0,1,1.494-2.894V44.4Zm30.7,0L59.09,44.4V36.429a3.571,3.571,0,0,1,1.493,2.894ZM54.743,33.6v6.5H50.329V36.894a5.1,5.1,0,1,0-10.186,0V40.1H35.728V26H54.743v7.6ZM44.49,47.47V36.894c0-.712.44-1.167.743-1.167s.749.455.749,1.167V47.457a6.907,6.907,0,0,1-.748,1.909A6.917,6.917,0,0,1,44.49,47.47Zm5.839,0V44.356h4.414v.688a2.1,2.1,0,0,0,.364,1.179l4.372,6.426H48.388C49.344,50.984,50.329,48.92,50.329,47.47Zm-5.1-42.531C47.765,7.26,53.2,13.1,54.47,21.444H36C37.275,13.1,42.7,7.258,45.233,4.939ZM10.048,10.305h25.37a29.294,29.294,0,0,0-4.036,14.711v6.753a7.889,7.889,0,0,0-5.84,7.554V52.649H7.585V12.716A2.44,2.44,0,0,1,10.048,10.305ZM55.331,79.547H34.893l2.985-8.77H52.346ZM80.177,66.522H10.048a2.44,2.44,0,0,1-2.463-2.411V56.9H82.64v7.209A2.44,2.44,0,0,1,80.177,66.522Z" transform="translate(0)"/></g></svg>