<svg xmlns="http://www.w3.org/2000/svg" width="91.346" height="83.801" viewBox="0 0 91.346 83.801"><defs><style>.a{fill:#780a0d;}</style></defs><g class="a" transform="translate(-29.037)"><g transform="translate(41.381 10.776)"><path class="b" d="M96.55,65.841c-3.4,0-6.172,2.252-6.172,5.02s2.769,5.02,6.172,5.02,6.172-2.252,6.172-5.02S99.953,65.841,96.55,65.841Z" transform="translate(-90.378 -65.841)"/></g><g transform="translate(36.443 20.817)"><g transform="translate(0)"><path class="b" d="M76.952,127.183c-6.126,0-11.11,4.054-11.11,9.036,0,2.768,2.769,5.02,6.172,5.02h9.875c3.4,0,6.172-2.252,6.172-5.02C88.061,131.237,83.077,127.183,76.952,127.183Z" transform="translate(-65.842 -127.183)"/></g></g><g transform="translate(95.694 48.928)"><path class="b" d="M366.452,298.939c-3.4,0-6.172,2.252-6.172,5.02s2.769,5.02,6.172,5.02,6.172-2.252,6.172-5.02S369.855,298.939,366.452,298.939Z" transform="translate(-360.28 -298.939)"/></g><g transform="translate(90.757 58.968)"><path class="b" d="M346.854,360.28c-6.126,0-11.11,4.053-11.11,9.036,0,2.768,2.769,5.02,6.172,5.02h9.875c3.4,0,6.172-2.252,6.172-5.02C357.963,364.333,352.979,360.28,346.854,360.28Z" transform="translate(-335.744 -360.28)"/></g><g transform="translate(29.037 45.314)"><path class="b" d="M70.513,307.579,60.97,297.23,59.923,303.2c-13.919-3.691-23.48-14.3-23.48-26.346H29.037c0,15.012,12.211,28.2,29.827,32.383l-1.071,6.1Z" transform="translate(-29.037 -276.856)"/></g><g transform="translate(78.907)"><path class="b" d="M288.5,6.1l1.07-6.1L276.856,7.764,286.4,18.113l1.047-5.972c13.919,3.691,23.48,14.3,23.48,26.346h7.406C318.332,23.474,306.121,10.285,288.5,6.1Z" transform="translate(-276.856)"/></g></g></svg>